<svg version="1.1" xmlns="http://www.w3.org/2000/svg" xmlns:xlink="http://www.w3.org/1999/xlink" width="839" height="612"><defs/><g><text fill="#eeeeee" stroke="none" font-family="Arial" font-size="24px" font-style="normal" font-weight="normal" text-decoration="none" x="0" y="0">UNREGISTERED</text><text fill="#eeeeee" stroke="none" font-family="Arial" font-size="24px" font-style="normal" font-weight="normal" text-decoration="none" x="0" y="30">UNREGISTERED</text><text fill="#eeeeee" stroke="none" font-family="Arial" font-size="24px" font-style="normal" font-weight="normal" text-decoration="none" x="0" y="60">UNREGISTERED</text><text fill="#eeeeee" stroke="none" font-family="Arial" font-size="24px" font-style="normal" font-weight="normal" text-decoration="none" x="0" y="90">UNREGISTERED</text><text fill="#eeeeee" stroke="none" font-family="Arial" font-size="24px" font-style="normal" font-weight="normal" text-decoration="none" x="0" y="120">UNREGISTERED</text><text fill="#eeeeee" stroke="none" font-family="Arial" font-size="24px" font-style="normal" font-weight="normal" text-decoration="none" x="0" y="150">UNREGISTERED</text><text fill="#eeeeee" stroke="none" font-family="Arial" font-size="24px" font-style="normal" font-weight="normal" text-decoration="none" x="0" y="180">UNREGISTERED</text><text fill="#eeeeee" stroke="none" font-family="Arial" font-size="24px" font-style="normal" font-weight="normal" text-decoration="none" x="0" y="210">UNREGISTERED</text><text fill="#eeeeee" stroke="none" font-family="Arial" font-size="24px" font-style="normal" font-weight="normal" text-decoration="none" x="0" y="240">UNREGISTERED</text><text fill="#eeeeee" stroke="none" font-family="Arial" font-size="24px" font-style="normal" font-weight="normal" text-decoration="none" x="0" y="270">UNREGISTERED</text><text fill="#eeeeee" stroke="none" font-family="Arial" font-size="24px" font-style="normal" font-weight="normal" text-decoration="none" x="0" y="300">UNREGISTERED</text><text fill="#eeeeee" stroke="none" font-family="Arial" font-size="24px" font-style="normal" font-weight="normal" text-decoration="none" x="0" y="330">UNREGISTERED</text><text fill="#eeeeee" stroke="none" font-family="Arial" font-size="24px" font-style="normal" font-weight="normal" text-decoration="none" x="0" y="360">UNREGISTERED</text><text fill="#eeeeee" stroke="none" font-family="Arial" font-size="24px" font-style="normal" font-weight="normal" text-decoration="none" x="0" y="390">UNREGISTERED</text><text fill="#eeeeee" stroke="none" font-family="Arial" font-size="24px" font-style="normal" font-weight="normal" text-decoration="none" x="0" y="420">UNREGISTERED</text><text fill="#eeeeee" stroke="none" font-family="Arial" font-size="24px" font-style="normal" font-weight="normal" text-decoration="none" x="0" y="450">UNREGISTERED</text><text fill="#eeeeee" stroke="none" font-family="Arial" font-size="24px" font-style="normal" font-weight="normal" text-decoration="none" x="0" y="480">UNREGISTERED</text><text fill="#eeeeee" stroke="none" font-family="Arial" font-size="24px" font-style="normal" font-weight="normal" text-decoration="none" x="0" y="510">UNREGISTERED</text><text fill="#eeeeee" stroke="none" font-family="Arial" font-size="24px" font-style="normal" font-weight="normal" text-decoration="none" x="0" y="540">UNREGISTERED</text><text fill="#eeeeee" stroke="none" font-family="Arial" font-size="24px" font-style="normal" font-weight="normal" text-decoration="none" x="0" y="570">UNREGISTERED</text><text fill="#eeeeee" stroke="none" font-family="Arial" font-size="24px" font-style="normal" font-weight="normal" text-decoration="none" x="0" y="600">UNREGISTERED</text><text fill="#eeeeee" stroke="none" font-family="Arial" font-size="24px" font-style="normal" font-weight="normal" text-decoration="none" x="200" y="0">UNREGISTERED</text><text fill="#eeeeee" stroke="none" font-family="Arial" font-size="24px" font-style="normal" font-weight="normal" text-decoration="none" x="200" y="30">UNREGISTERED</text><text fill="#eeeeee" stroke="none" font-family="Arial" font-size="24px" font-style="normal" font-weight="normal" text-decoration="none" x="200" y="60">UNREGISTERED</text><text fill="#eeeeee" stroke="none" font-family="Arial" font-size="24px" font-style="normal" font-weight="normal" text-decoration="none" x="200" y="90">UNREGISTERED</text><text fill="#eeeeee" stroke="none" font-family="Arial" font-size="24px" font-style="normal" font-weight="normal" text-decoration="none" x="200" y="120">UNREGISTERED</text><text fill="#eeeeee" stroke="none" font-family="Arial" font-size="24px" font-style="normal" font-weight="normal" text-decoration="none" x="200" y="150">UNREGISTERED</text><text fill="#eeeeee" stroke="none" font-family="Arial" font-size="24px" font-style="normal" font-weight="normal" text-decoration="none" x="200" y="180">UNREGISTERED</text><text fill="#eeeeee" stroke="none" font-family="Arial" font-size="24px" font-style="normal" font-weight="normal" text-decoration="none" x="200" y="210">UNREGISTERED</text><text fill="#eeeeee" stroke="none" font-family="Arial" font-size="24px" font-style="normal" font-weight="normal" text-decoration="none" x="200" y="240">UNREGISTERED</text><text fill="#eeeeee" stroke="none" font-family="Arial" font-size="24px" font-style="normal" font-weight="normal" text-decoration="none" x="200" y="270">UNREGISTERED</text><text fill="#eeeeee" stroke="none" font-family="Arial" font-size="24px" font-style="normal" font-weight="normal" text-decoration="none" x="200" y="300">UNREGISTERED</text><text fill="#eeeeee" stroke="none" font-family="Arial" font-size="24px" font-style="normal" font-weight="normal" text-decoration="none" x="200" y="330">UNREGISTERED</text><text fill="#eeeeee" stroke="none" font-family="Arial" font-size="24px" font-style="normal" font-weight="normal" text-decoration="none" x="200" y="360">UNREGISTERED</text><text fill="#eeeeee" stroke="none" font-family="Arial" font-size="24px" font-style="normal" font-weight="normal" text-decoration="none" x="200" y="390">UNREGISTERED</text><text fill="#eeeeee" stroke="none" font-family="Arial" font-size="24px" font-style="normal" font-weight="normal" text-decoration="none" x="200" y="420">UNREGISTERED</text><text fill="#eeeeee" stroke="none" font-family="Arial" font-size="24px" font-style="normal" font-weight="normal" text-decoration="none" x="200" y="450">UNREGISTERED</text><text fill="#eeeeee" stroke="none" font-family="Arial" font-size="24px" font-style="normal" font-weight="normal" text-decoration="none" x="200" y="480">UNREGISTERED</text><text fill="#eeeeee" stroke="none" font-family="Arial" font-size="24px" font-style="normal" font-weight="normal" text-decoration="none" x="200" y="510">UNREGISTERED</text><text fill="#eeeeee" stroke="none" font-family="Arial" font-size="24px" font-style="normal" font-weight="normal" text-decoration="none" x="200" y="540">UNREGISTERED</text><text fill="#eeeeee" stroke="none" font-family="Arial" font-size="24px" font-style="normal" font-weight="normal" text-decoration="none" x="200" y="570">UNREGISTERED</text><text fill="#eeeeee" stroke="none" font-family="Arial" font-size="24px" font-style="normal" font-weight="normal" text-decoration="none" x="200" y="600">UNREGISTERED</text><text fill="#eeeeee" stroke="none" font-family="Arial" font-size="24px" font-style="normal" font-weight="normal" text-decoration="none" x="400" y="0">UNREGISTERED</text><text fill="#eeeeee" stroke="none" font-family="Arial" font-size="24px" font-style="normal" font-weight="normal" text-decoration="none" x="400" y="30">UNREGISTERED</text><text fill="#eeeeee" stroke="none" font-family="Arial" font-size="24px" font-style="normal" font-weight="normal" text-decoration="none" x="400" y="60">UNREGISTERED</text><text fill="#eeeeee" stroke="none" font-family="Arial" font-size="24px" font-style="normal" font-weight="normal" text-decoration="none" x="400" y="90">UNREGISTERED</text><text fill="#eeeeee" stroke="none" font-family="Arial" font-size="24px" font-style="normal" font-weight="normal" text-decoration="none" x="400" y="120">UNREGISTERED</text><text fill="#eeeeee" stroke="none" font-family="Arial" font-size="24px" font-style="normal" font-weight="normal" text-decoration="none" x="400" y="150">UNREGISTERED</text><text fill="#eeeeee" stroke="none" font-family="Arial" font-size="24px" font-style="normal" font-weight="normal" text-decoration="none" x="400" y="180">UNREGISTERED</text><text fill="#eeeeee" stroke="none" font-family="Arial" font-size="24px" font-style="normal" font-weight="normal" text-decoration="none" x="400" y="210">UNREGISTERED</text><text fill="#eeeeee" stroke="none" font-family="Arial" font-size="24px" font-style="normal" font-weight="normal" text-decoration="none" x="400" y="240">UNREGISTERED</text><text fill="#eeeeee" stroke="none" font-family="Arial" font-size="24px" font-style="normal" font-weight="normal" text-decoration="none" x="400" y="270">UNREGISTERED</text><text fill="#eeeeee" stroke="none" font-family="Arial" font-size="24px" font-style="normal" font-weight="normal" text-decoration="none" x="400" y="300">UNREGISTERED</text><text fill="#eeeeee" stroke="none" font-family="Arial" font-size="24px" font-style="normal" font-weight="normal" text-decoration="none" x="400" y="330">UNREGISTERED</text><text fill="#eeeeee" stroke="none" font-family="Arial" font-size="24px" font-style="normal" font-weight="normal" text-decoration="none" x="400" y="360">UNREGISTERED</text><text fill="#eeeeee" stroke="none" font-family="Arial" font-size="24px" font-style="normal" font-weight="normal" text-decoration="none" x="400" y="390">UNREGISTERED</text><text fill="#eeeeee" stroke="none" font-family="Arial" font-size="24px" font-style="normal" font-weight="normal" text-decoration="none" x="400" y="420">UNREGISTERED</text><text fill="#eeeeee" stroke="none" font-family="Arial" font-size="24px" font-style="normal" font-weight="normal" text-decoration="none" x="400" y="450">UNREGISTERED</text><text fill="#eeeeee" stroke="none" font-family="Arial" font-size="24px" font-style="normal" font-weight="normal" text-decoration="none" x="400" y="480">UNREGISTERED</text><text fill="#eeeeee" stroke="none" font-family="Arial" font-size="24px" font-style="normal" font-weight="normal" text-decoration="none" x="400" y="510">UNREGISTERED</text><text fill="#eeeeee" stroke="none" font-family="Arial" font-size="24px" font-style="normal" font-weight="normal" text-decoration="none" x="400" y="540">UNREGISTERED</text><text fill="#eeeeee" stroke="none" font-family="Arial" font-size="24px" font-style="normal" font-weight="normal" text-decoration="none" x="400" y="570">UNREGISTERED</text><text fill="#eeeeee" stroke="none" font-family="Arial" font-size="24px" font-style="normal" font-weight="normal" text-decoration="none" x="400" y="600">UNREGISTERED</text><text fill="#eeeeee" stroke="none" font-family="Arial" font-size="24px" font-style="normal" font-weight="normal" text-decoration="none" x="600" y="0">UNREGISTERED</text><text fill="#eeeeee" stroke="none" font-family="Arial" font-size="24px" font-style="normal" font-weight="normal" text-decoration="none" x="600" y="30">UNREGISTERED</text><text fill="#eeeeee" stroke="none" font-family="Arial" font-size="24px" font-style="normal" font-weight="normal" text-decoration="none" x="600" y="60">UNREGISTERED</text><text fill="#eeeeee" stroke="none" font-family="Arial" font-size="24px" font-style="normal" font-weight="normal" text-decoration="none" x="600" y="90">UNREGISTERED</text><text fill="#eeeeee" stroke="none" font-family="Arial" font-size="24px" font-style="normal" font-weight="normal" text-decoration="none" x="600" y="120">UNREGISTERED</text><text fill="#eeeeee" stroke="none" font-family="Arial" font-size="24px" font-style="normal" font-weight="normal" text-decoration="none" x="600" y="150">UNREGISTERED</text><text fill="#eeeeee" stroke="none" font-family="Arial" font-size="24px" font-style="normal" font-weight="normal" text-decoration="none" x="600" y="180">UNREGISTERED</text><text fill="#eeeeee" stroke="none" font-family="Arial" font-size="24px" font-style="normal" font-weight="normal" text-decoration="none" x="600" y="210">UNREGISTERED</text><text fill="#eeeeee" stroke="none" font-family="Arial" font-size="24px" font-style="normal" font-weight="normal" text-decoration="none" x="600" y="240">UNREGISTERED</text><text fill="#eeeeee" stroke="none" font-family="Arial" font-size="24px" font-style="normal" font-weight="normal" text-decoration="none" x="600" y="270">UNREGISTERED</text><text fill="#eeeeee" stroke="none" font-family="Arial" font-size="24px" font-style="normal" font-weight="normal" text-decoration="none" x="600" y="300">UNREGISTERED</text><text fill="#eeeeee" stroke="none" font-family="Arial" font-size="24px" font-style="normal" font-weight="normal" text-decoration="none" x="600" y="330">UNREGISTERED</text><text fill="#eeeeee" stroke="none" font-family="Arial" font-size="24px" font-style="normal" font-weight="normal" text-decoration="none" x="600" y="360">UNREGISTERED</text><text fill="#eeeeee" stroke="none" font-family="Arial" font-size="24px" font-style="normal" font-weight="normal" text-decoration="none" x="600" y="390">UNREGISTERED</text><text fill="#eeeeee" stroke="none" font-family="Arial" font-size="24px" font-style="normal" font-weight="normal" text-decoration="none" x="600" y="420">UNREGISTERED</text><text fill="#eeeeee" stroke="none" font-family="Arial" font-size="24px" font-style="normal" font-weight="normal" text-decoration="none" x="600" y="450">UNREGISTERED</text><text fill="#eeeeee" stroke="none" font-family="Arial" font-size="24px" font-style="normal" font-weight="normal" text-decoration="none" x="600" y="480">UNREGISTERED</text><text fill="#eeeeee" stroke="none" font-family="Arial" font-size="24px" font-style="normal" font-weight="normal" text-decoration="none" x="600" y="510">UNREGISTERED</text><text fill="#eeeeee" stroke="none" font-family="Arial" font-size="24px" font-style="normal" font-weight="normal" text-decoration="none" x="600" y="540">UNREGISTERED</text><text fill="#eeeeee" stroke="none" font-family="Arial" font-size="24px" font-style="normal" font-weight="normal" text-decoration="none" x="600" y="570">UNREGISTERED</text><text fill="#eeeeee" stroke="none" font-family="Arial" font-size="24px" font-style="normal" font-weight="normal" text-decoration="none" x="600" y="600">UNREGISTERED</text><text fill="#eeeeee" stroke="none" font-family="Arial" font-size="24px" font-style="normal" font-weight="normal" text-decoration="none" x="800" y="0">UNREGISTERED</text><text fill="#eeeeee" stroke="none" font-family="Arial" font-size="24px" font-style="normal" font-weight="normal" text-decoration="none" x="800" y="30">UNREGISTERED</text><text fill="#eeeeee" stroke="none" font-family="Arial" font-size="24px" font-style="normal" font-weight="normal" text-decoration="none" x="800" y="60">UNREGISTERED</text><text fill="#eeeeee" stroke="none" font-family="Arial" font-size="24px" font-style="normal" font-weight="normal" text-decoration="none" x="800" y="90">UNREGISTERED</text><text fill="#eeeeee" stroke="none" font-family="Arial" font-size="24px" font-style="normal" font-weight="normal" text-decoration="none" x="800" y="120">UNREGISTERED</text><text fill="#eeeeee" stroke="none" font-family="Arial" font-size="24px" font-style="normal" font-weight="normal" text-decoration="none" x="800" y="150">UNREGISTERED</text><text fill="#eeeeee" stroke="none" font-family="Arial" font-size="24px" font-style="normal" font-weight="normal" text-decoration="none" x="800" y="180">UNREGISTERED</text><text fill="#eeeeee" stroke="none" font-family="Arial" font-size="24px" font-style="normal" font-weight="normal" text-decoration="none" x="800" y="210">UNREGISTERED</text><text fill="#eeeeee" stroke="none" font-family="Arial" font-size="24px" font-style="normal" font-weight="normal" text-decoration="none" x="800" y="240">UNREGISTERED</text><text fill="#eeeeee" stroke="none" font-family="Arial" font-size="24px" font-style="normal" font-weight="normal" text-decoration="none" x="800" y="270">UNREGISTERED</text><text fill="#eeeeee" stroke="none" font-family="Arial" font-size="24px" font-style="normal" font-weight="normal" text-decoration="none" x="800" y="300">UNREGISTERED</text><text fill="#eeeeee" stroke="none" font-family="Arial" font-size="24px" font-style="normal" font-weight="normal" text-decoration="none" x="800" y="330">UNREGISTERED</text><text fill="#eeeeee" stroke="none" font-family="Arial" font-size="24px" font-style="normal" font-weight="normal" text-decoration="none" x="800" y="360">UNREGISTERED</text><text fill="#eeeeee" stroke="none" font-family="Arial" font-size="24px" font-style="normal" font-weight="normal" text-decoration="none" x="800" y="390">UNREGISTERED</text><text fill="#eeeeee" stroke="none" font-family="Arial" font-size="24px" font-style="normal" font-weight="normal" text-decoration="none" x="800" y="420">UNREGISTERED</text><text fill="#eeeeee" stroke="none" font-family="Arial" font-size="24px" font-style="normal" font-weight="normal" text-decoration="none" x="800" y="450">UNREGISTERED</text><text fill="#eeeeee" stroke="none" font-family="Arial" font-size="24px" font-style="normal" font-weight="normal" text-decoration="none" x="800" y="480">UNREGISTERED</text><text fill="#eeeeee" stroke="none" font-family="Arial" font-size="24px" font-style="normal" font-weight="normal" text-decoration="none" x="800" y="510">UNREGISTERED</text><text fill="#eeeeee" stroke="none" font-family="Arial" font-size="24px" font-style="normal" font-weight="normal" text-decoration="none" x="800" y="540">UNREGISTERED</text><text fill="#eeeeee" stroke="none" font-family="Arial" font-size="24px" font-style="normal" font-weight="normal" text-decoration="none" x="800" y="570">UNREGISTERED</text><text fill="#eeeeee" stroke="none" font-family="Arial" font-size="24px" font-style="normal" font-weight="normal" text-decoration="none" x="800" y="600">UNREGISTERED</text><g transform="translate(-182,-110) scale(1,1)"><path fill="#C0C0C0" stroke="none" d="M 607 137 L 820 137 L 820 278 L 607 278" opacity="0.2"/></g><g transform="translate(-182,-110) scale(1,1)"><path fill="#C0C0C0" stroke="none" d="M 607 137 L 617 127 L 830 127 L 820 137" opacity="0.2"/></g><g transform="translate(-182,-110) scale(1,1)"><path fill="#C0C0C0" stroke="none" d="M 830 127 L 820 137 L 820 278 L 830 268" opacity="0.2"/></g><g transform="translate(-182,-110) scale(1,1)"><path fill="#ffffff" stroke="none" d="M 600 130 L 813 130 L 813 271 L 600 271"/></g><g transform="translate(-182,-110) scale(1,1)"><path fill="#ffffff" stroke="none" d="M 600 130 L 610 120 L 823 120 L 813 130"/></g><g transform="translate(-182,-110) scale(1,1)"><path fill="#ffffff" stroke="none" d="M 823 120 L 813 130 L 813 271 L 823 261"/></g><g transform="translate(-182,-110) scale(1,1)"><path fill="none" stroke="#000000" d="M 600 130 L 813 130 L 813 271 L 600 271 L 600 130" stroke-miterlimit="10"/></g><g transform="translate(-182,-110) scale(1,1)"><path fill="none" stroke="#000000" d="M 600 130 L 610 120 L 823 120 L 813 130 L 600 130" stroke-miterlimit="10"/></g><g transform="translate(-182,-110) scale(1,1)"><path fill="none" stroke="#000000" d="M 823 120 L 813 130 L 813 271 L 823 261 L 823 120" stroke-miterlimit="10"/></g><g transform="translate(-182,-110) scale(1,1)"><g><path fill="none" stroke="none"/><text fill="#000000" stroke="none" font-family="Arial" font-size="13px" font-style="normal" font-weight="bold" text-decoration="none" x="612.8388671875" y="148">ESTACION DE TRABAJO "PC"</text></g></g><g transform="translate(-182,-110) scale(1,1)"><path fill="#C0C0C0" stroke="none" d="M 623 401 L 988 401 L 988 646 L 623 646" opacity="0.2"/></g><g transform="translate(-182,-110) scale(1,1)"><path fill="#C0C0C0" stroke="none" d="M 623 401 L 633 391 L 998 391 L 988 401" opacity="0.2"/></g><g transform="translate(-182,-110) scale(1,1)"><path fill="#C0C0C0" stroke="none" d="M 998 391 L 988 401 L 988 646 L 998 636" opacity="0.2"/></g><g transform="translate(-182,-110) scale(1,1)"><path fill="#ffffff" stroke="none" d="M 616 394 L 981 394 L 981 639 L 616 639"/></g><g transform="translate(-182,-110) scale(1,1)"><path fill="#ffffff" stroke="none" d="M 616 394 L 626 384 L 991 384 L 981 394"/></g><g transform="translate(-182,-110) scale(1,1)"><path fill="#ffffff" stroke="none" d="M 991 384 L 981 394 L 981 639 L 991 629"/></g><g transform="translate(-182,-110) scale(1,1)"><path fill="none" stroke="#000000" d="M 616 394 L 981 394 L 981 639 L 616 639 L 616 394" stroke-miterlimit="10"/></g><g transform="translate(-182,-110) scale(1,1)"><path fill="none" stroke="#000000" d="M 616 394 L 626 384 L 991 384 L 981 394 L 616 394" stroke-miterlimit="10"/></g><g transform="translate(-182,-110) scale(1,1)"><path fill="none" stroke="#000000" d="M 991 384 L 981 394 L 981 639 L 991 629 L 991 384" stroke-miterlimit="10"/></g><g transform="translate(-182,-110) scale(1,1)"><g><path fill="none" stroke="none"/><text fill="#000000" stroke="none" font-family="Arial" font-size="13px" font-style="normal" font-weight="bold" text-decoration="none" x="748.196533203125" y="412">SERVIDOR WEB</text></g></g><g transform="translate(-182,-110) scale(1,1)"><path fill="#C0C0C0" stroke="none" d="M 223 489 L 414.72998046875 489 L 414.72998046875 718 L 223 718" opacity="0.2"/></g><g transform="translate(-182,-110) scale(1,1)"><path fill="#C0C0C0" stroke="none" d="M 223 489 L 233 479 L 424.72998046875 479 L 414.72998046875 489" opacity="0.2"/></g><g transform="translate(-182,-110) scale(1,1)"><path fill="#C0C0C0" stroke="none" d="M 424.72998046875 479 L 414.72998046875 489 L 414.72998046875 718 L 424.72998046875 708" opacity="0.2"/></g><g transform="translate(-182,-110) scale(1,1)"><path fill="#ffffff" stroke="none" d="M 216 482 L 407.72998046875 482 L 407.72998046875 711 L 216 711"/></g><g transform="translate(-182,-110) scale(1,1)"><path fill="#ffffff" stroke="none" d="M 216 482 L 226 472 L 417.72998046875 472 L 407.72998046875 482"/></g><g transform="translate(-182,-110) scale(1,1)"><path fill="#ffffff" stroke="none" d="M 417.72998046875 472 L 407.72998046875 482 L 407.72998046875 711 L 417.72998046875 701"/></g><g transform="translate(-182,-110) scale(1,1)"><path fill="none" stroke="#000000" d="M 216 482 L 407.72998046875 482 L 407.72998046875 711 L 216 711 L 216 482" stroke-miterlimit="10"/></g><g transform="translate(-182,-110) scale(1,1)"><path fill="none" stroke="#000000" d="M 216 482 L 226 472 L 417.72998046875 472 L 407.72998046875 482 L 216 482" stroke-miterlimit="10"/></g><g transform="translate(-182,-110) scale(1,1)"><path fill="none" stroke="#000000" d="M 417.72998046875 472 L 407.72998046875 482 L 407.72998046875 711 L 417.72998046875 701 L 417.72998046875 472" stroke-miterlimit="10"/></g><g transform="translate(-182,-110) scale(1,1)"><g><path fill="none" stroke="none"/><text fill="#000000" stroke="none" font-family="Arial" font-size="13px" font-style="normal" font-weight="bold" text-decoration="none" x="267.337890625" y="500">DB SERVIDOR</text></g></g><g transform="translate(-182,-110) scale(1,1)"><rect fill="#C0C0C0" stroke="none" x="649" y="175" width="134" height="88" opacity="0.2"/></g><g transform="translate(-182,-110) scale(1,1)"><rect fill="#ffffff" stroke="none" x="642" y="168" width="134" height="88"/></g><g transform="translate(-182,-110) scale(1,1)"><path fill="none" stroke="#000000" d="M 642 168 L 776 168 L 776 256 L 642 256 L 642 168 Z Z" stroke-miterlimit="10"/></g><g transform="translate(-182,-110) scale(1,1)"><rect fill="#ffffff" stroke="none" x="632" y="175" width="20" height="10"/></g><g transform="translate(-182,-110) scale(1,1)"><path fill="none" stroke="#000000" d="M 632 175 L 652 175 L 652 185 L 632 185 L 632 175 Z Z" stroke-miterlimit="10"/></g><g transform="translate(-182,-110) scale(1,1)"><rect fill="#ffffff" stroke="none" x="632" y="195" width="20" height="10"/></g><g transform="translate(-182,-110) scale(1,1)"><path fill="none" stroke="#000000" d="M 632 195 L 652 195 L 652 205 L 632 205 L 632 195 Z Z" stroke-miterlimit="10"/></g><g transform="translate(-182,-110) scale(1,1)"><g><path fill="none" stroke="none"/><text fill="#000000" stroke="none" font-family="Arial" font-size="13px" font-style="normal" font-weight="bold" text-decoration="none" x="659.4736328125" y="186">BUSCADOR WEB</text></g></g><g transform="translate(-182,-110) scale(1,1)"><rect fill="#C0C0C0" stroke="none" x="665" y="439" width="116.49365234375" height="44" opacity="0.2"/></g><g transform="translate(-182,-110) scale(1,1)"><rect fill="#ffffff" stroke="none" x="658" y="432" width="116.49365234375" height="44"/></g><g transform="translate(-182,-110) scale(1,1)"><path fill="none" stroke="#000000" d="M 658 432 L 774.49365234375 432 L 774.49365234375 476 L 658 476 L 658 432 Z Z" stroke-miterlimit="10"/></g><g transform="translate(-182,-110) scale(1,1)"><rect fill="#ffffff" stroke="none" x="648" y="439" width="20" height="10"/></g><g transform="translate(-182,-110) scale(1,1)"><path fill="none" stroke="#000000" d="M 648 439 L 668 439 L 668 449 L 648 449 L 648 439 Z Z" stroke-miterlimit="10"/></g><g transform="translate(-182,-110) scale(1,1)"><rect fill="#ffffff" stroke="none" x="648" y="459" width="20" height="10"/></g><g transform="translate(-182,-110) scale(1,1)"><path fill="none" stroke="#000000" d="M 648 459 L 668 459 L 668 469 L 648 469 L 648 459 Z Z" stroke-miterlimit="10"/></g><g transform="translate(-182,-110) scale(1,1)"><g><path fill="none" stroke="none"/><text fill="#000000" stroke="none" font-family="Arial" font-size="13px" font-style="normal" font-weight="bold" text-decoration="none" x="672.5" y="450">INTERFAZ WEB</text></g></g><g transform="translate(-182,-110) scale(1,1)"><rect fill="#C0C0C0" stroke="none" x="657" y="559" width="134" height="60" opacity="0.2"/></g><g transform="translate(-182,-110) scale(1,1)"><rect fill="#ffffff" stroke="none" x="650" y="552" width="134" height="60"/></g><g transform="translate(-182,-110) scale(1,1)"><path fill="none" stroke="#000000" d="M 650 552 L 784 552 L 784 612 L 650 612 L 650 552 Z Z" stroke-miterlimit="10"/></g><g transform="translate(-182,-110) scale(1,1)"><rect fill="#ffffff" stroke="none" x="640" y="559" width="20" height="10"/></g><g transform="translate(-182,-110) scale(1,1)"><path fill="none" stroke="#000000" d="M 640 559 L 660 559 L 660 569 L 640 569 L 640 559 Z Z" stroke-miterlimit="10"/></g><g transform="translate(-182,-110) scale(1,1)"><rect fill="#ffffff" stroke="none" x="640" y="579" width="20" height="10"/></g><g transform="translate(-182,-110) scale(1,1)"><path fill="none" stroke="#000000" d="M 640 579 L 660 579 L 660 589 L 640 589 L 640 579 Z Z" stroke-miterlimit="10"/></g><g transform="translate(-182,-110) scale(1,1)"><g><path fill="none" stroke="none"/><text fill="#000000" stroke="none" font-family="Arial" font-size="13px" font-style="normal" font-weight="bold" text-decoration="none" x="679.029541015625" y="570">DB INTERFAZ</text></g></g><g transform="translate(-182,-110) scale(1,1)"><rect fill="#C0C0C0" stroke="none" x="857" y="543" width="110.7236328125" height="80" opacity="0.2"/></g><g transform="translate(-182,-110) scale(1,1)"><rect fill="#ffffff" stroke="none" x="850" y="536" width="110.7236328125" height="80"/></g><g transform="translate(-182,-110) scale(1,1)"><path fill="none" stroke="#000000" d="M 850 536 L 960.7236328125 536 L 960.7236328125 616 L 850 616 L 850 536 Z Z" stroke-miterlimit="10"/></g><g transform="translate(-182,-110) scale(1,1)"><rect fill="#ffffff" stroke="none" x="840" y="543" width="20" height="10"/></g><g transform="translate(-182,-110) scale(1,1)"><path fill="none" stroke="#000000" d="M 840 543 L 860 543 L 860 553 L 840 553 L 840 543 Z Z" stroke-miterlimit="10"/></g><g transform="translate(-182,-110) scale(1,1)"><rect fill="#ffffff" stroke="none" x="840" y="563" width="20" height="10"/></g><g transform="translate(-182,-110) scale(1,1)"><path fill="none" stroke="#000000" d="M 840 563 L 860 563 L 860 573 L 840 573 L 840 563 Z Z" stroke-miterlimit="10"/></g><g transform="translate(-182,-110) scale(1,1)"><g><path fill="none" stroke="none"/><text fill="#000000" stroke="none" font-family="Arial" font-size="13px" font-style="normal" font-weight="bold" text-decoration="none" x="864.5" y="554">ARCHIVO LOG</text></g></g><g transform="translate(-182,-110) scale(1,1)"><rect fill="#C0C0C0" stroke="none" x="257" y="559" width="134" height="88" opacity="0.2"/></g><g transform="translate(-182,-110) scale(1,1)"><rect fill="#ffffff" stroke="none" x="250" y="552" width="134" height="88"/></g><g transform="translate(-182,-110) scale(1,1)"><path fill="none" stroke="#000000" d="M 250 552 L 384 552 L 384 640 L 250 640 L 250 552 Z Z" stroke-miterlimit="10"/></g><g transform="translate(-182,-110) scale(1,1)"><rect fill="#ffffff" stroke="none" x="240" y="559" width="20" height="10"/></g><g transform="translate(-182,-110) scale(1,1)"><path fill="none" stroke="#000000" d="M 240 559 L 260 559 L 260 569 L 240 569 L 240 559 Z Z" stroke-miterlimit="10"/></g><g transform="translate(-182,-110) scale(1,1)"><rect fill="#ffffff" stroke="none" x="240" y="579" width="20" height="10"/></g><g transform="translate(-182,-110) scale(1,1)"><path fill="none" stroke="#000000" d="M 240 579 L 260 579 L 260 589 L 240 589 L 240 579 Z Z" stroke-miterlimit="10"/></g><g transform="translate(-182,-110) scale(1,1)"><g><path fill="none" stroke="none"/><text fill="#000000" stroke="none" font-family="Arial" font-size="13px" font-style="normal" font-weight="bold" text-decoration="none" x="297.444091796875" y="570">SQL DB</text></g></g><g transform="translate(-182,-110) scale(1,1)"><path fill="none" stroke="#000000" d="M 712 256 L 712 432" stroke-miterlimit="10"/></g><g transform="translate(-182,-110) scale(1,1)"><path fill="#000000" stroke="none" d="M 707.790482243984 421.83732514237585 L 712 432 L 716.209517756016 421.83732514237585"/></g><g transform="translate(-182,-110) scale(1,1)"><path fill="none" stroke="#000000" d="M 707.790482243984 421.83732514237585 L 712 432 L 716.209517756016 421.83732514237585 L 707.790482243984 421.83732514237585" stroke-miterlimit="10"/></g><g transform="translate(-182,-110) scale(1,1)"><path fill="#000000" stroke="none" d="M 716.209517756016 266.16267485762415 L 712 256 L 707.790482243984 266.16267485762415"/></g><g transform="translate(-182,-110) scale(1,1)"><path fill="none" stroke="#000000" d="M 716.209517756016 266.16267485762415 L 712 256 L 707.790482243984 266.16267485762415 L 716.209517756016 266.16267485762415" stroke-miterlimit="10"/></g><g transform="translate(-182,-110) scale(1,1)"><path fill="none" stroke="#000000" d="M 384 600 L 650 602" stroke-miterlimit="10"/></g><g transform="translate(-182,-110) scale(1,1)"><path fill="#000000" stroke="none" d="M 639.805962775087 606.1329898447841 L 650 602 L 639.869262004774 597.7141922964179"/></g><g transform="translate(-182,-110) scale(1,1)"><path fill="none" stroke="#000000" d="M 639.805962775087 606.1329898447841 L 650 602 L 639.869262004774 597.7141922964179 L 639.805962775087 606.1329898447841" stroke-miterlimit="10"/></g><g transform="translate(-182,-110) scale(1,1)"><path fill="#000000" stroke="none" d="M 394.19403722491296 595.8670101552159 L 384 600 L 394.130737995226 604.2858077035821"/></g><g transform="translate(-182,-110) scale(1,1)"><path fill="none" stroke="#000000" d="M 394.19403722491296 595.8670101552159 L 384 600 L 394.130737995226 604.2858077035821 L 394.19403722491296 595.8670101552159" stroke-miterlimit="10"/></g><g transform="translate(-182,-110) scale(1,1)"><path fill="none" stroke="#000000" d="M 704 480 L 703 550" stroke-miterlimit="10"/></g><g transform="translate(-182,-110) scale(1,1)"><path fill="#000000" stroke="none" d="M 698.936077978144 539.7782321587569 L 703 550 L 707.3542545363899 539.8984918238746"/></g><g transform="translate(-182,-110) scale(1,1)"><path fill="none" stroke="#000000" d="M 698.936077978144 539.7782321587569 L 703 550 L 707.3542545363899 539.8984918238746 L 698.936077978144 539.7782321587569" stroke-miterlimit="10"/></g><g transform="translate(-182,-110) scale(1,1)"><path fill="#000000" stroke="none" d="M 708.063922021856 490.2217678412432 L 704 480 L 699.6457454636101 490.1015081761254"/></g><g transform="translate(-182,-110) scale(1,1)"><path fill="none" stroke="#000000" d="M 708.063922021856 490.2217678412432 L 704 480 L 699.6457454636101 490.1015081761254 L 708.063922021856 490.2217678412432" stroke-miterlimit="10"/></g><g transform="translate(-182,-110) scale(1,1)"><path fill="none" stroke="#000000" d="M 776 584 L 848 584" stroke-miterlimit="10"/></g><g transform="translate(-182,-110) scale(1,1)"><path fill="#000000" stroke="none" d="M 837.8373251423759 588.209517756016 L 848 584 L 837.8373251423758 579.790482243984"/></g><g transform="translate(-182,-110) scale(1,1)"><path fill="none" stroke="#000000" d="M 837.8373251423759 588.209517756016 L 848 584 L 837.8373251423758 579.790482243984 L 837.8373251423759 588.209517756016" stroke-miterlimit="10"/></g><g transform="translate(-182,-110) scale(1,1)"><path fill="#000000" stroke="none" d="M 786.1626748576241 579.790482243984 L 776 584 L 786.1626748576241 588.209517756016"/></g><g transform="translate(-182,-110) scale(1,1)"><path fill="none" stroke="#000000" d="M 786.1626748576241 579.790482243984 L 776 584 L 786.1626748576241 588.209517756016 L 786.1626748576241 579.790482243984" stroke-miterlimit="10"/></g><g transform="translate(-182,-110) scale(1,1)"><path fill="#ffffff" stroke="none" d="M 208 160.5 C 208 146.9690224 218.9690224 136 232.5 136 C 246.0309776 136 257 146.9690224 257 160.5 C 257 174.0309776 246.0309776 185 232.5 185 C 218.9690224 185 208 174.0309776 208 160.5 Z"/></g><g transform="translate(-182,-110) scale(1,1)"><path fill="none" stroke="#000000" d="M 208 160.5 C 208 146.9690224 218.9690224 136 232.5 136 C 246.0309776 136 257 146.9690224 257 160.5 C 257 174.0309776 246.0309776 185 232.5 185 C 218.9690224 185 208 174.0309776 208 160.5 Z" stroke-miterlimit="10"/></g><g transform="translate(-182,-110) scale(1,1)"><path fill="none" stroke="#000000" d="M 232 184 L 231 243" stroke-miterlimit="10"/></g><g transform="translate(-182,-110) scale(1,1)"><path fill="none" stroke="#000000" d="M 232 240 L 197 279" stroke-miterlimit="10"/></g><g transform="translate(-182,-110) scale(1,1)"><path fill="none" stroke="#000000" d="M 232 240 L 273 273" stroke-miterlimit="10"/></g><g transform="translate(-182,-110) scale(1,1)"><path fill="none" stroke="#000000" d="M 192 200 L 274 198" stroke-miterlimit="10"/></g><g transform="translate(-182,-110) scale(1,1)"><path fill="none" stroke="#000000" d="M 304 200 L 629 201" stroke-miterlimit="10"/></g><g transform="translate(-182,-110) scale(1,1)"><path fill="#000000" stroke="none" d="M 618.8244209483572 205.17822820867505 L 629 201 L 618.8503255503846 196.75923254978264"/></g><g transform="translate(-182,-110) scale(1,1)"><path fill="none" stroke="#000000" d="M 618.8244209483572 205.17822820867505 L 629 201 L 618.8503255503846 196.75923254978264 L 618.8244209483572 205.17822820867505" stroke-miterlimit="10"/></g><g transform="translate(-182,-110) scale(1,1)"><path fill="#000000" stroke="none" d="M 314.17557905164284 195.82177179132495 L 304 200 L 314.1496744496155 204.24076745021736"/></g><g transform="translate(-182,-110) scale(1,1)"><path fill="none" stroke="#000000" d="M 314.17557905164284 195.82177179132495 L 304 200 L 314.1496744496155 204.24076745021736 L 314.17557905164284 195.82177179132495" stroke-miterlimit="10"/></g><g transform="translate(-182,-110) scale(1,1)"><g><path fill="none" stroke="none"/><text fill="#000000" stroke="none" font-family="Arial" font-size="13px" font-style="normal" font-weight="normal" text-decoration="none" x="357" y="191">TECLADO/MONITOR</text></g></g><g transform="translate(-182,-110) scale(1,1)"><g><path fill="none" stroke="none"/><text fill="#000000" stroke="none" font-family="Arial" font-size="13px" font-style="normal" font-weight="normal" text-decoration="none" x="221" y="303">USUARIO</text></g></g><g transform="translate(-182,-110) scale(1,1)"><g><path fill="none" stroke="none"/><text fill="#000000" stroke="none" font-family="Arial" font-size="13px" font-style="normal" font-weight="normal" text-decoration="none" x="717" y="327">HTTP HTTPS</text><text fill="#000000" stroke="none" font-family="Arial" font-size="13px" font-style="normal" font-weight="normal" text-decoration="none" x="717" y="340">conexión</text></g></g><g transform="translate(-182,-110) scale(1,1)"><g><path fill="none" stroke="none"/><text fill="#000000" stroke="none" font-family="Arial" font-size="13px" font-style="normal" font-weight="normal" text-decoration="none" x="469" y="591">TCP/IP</text></g></g></g></svg>